<svg width="28" height="28" viewBox="0 0 28 28" fill="none" xmlns="http://www.w3.org/2000/svg">
<path d="M5.215 24.5H22.785C24.5817 24.5 25.7017 22.5517 24.8033 21L16.0183 5.82166C15.12 4.27 12.88 4.27 11.9817 5.82166L3.19667 21C2.29833 22.5517 3.41833 24.5 5.215 24.5ZM14 16.3333C13.3583 16.3333 12.8333 15.8083 12.8333 15.1667V12.8333C12.8333 12.1917 13.3583 11.6667 14 11.6667C14.6417 11.6667 15.1667 12.1917 15.1667 12.8333V15.1667C15.1667 15.8083 14.6417 16.3333 14 16.3333ZM15.1667 19.8333C15.1667 20.4777 14.6443 21 14 21V21C13.3557 21 12.8333 20.4777 12.8333 19.8333V19.8333C12.8333 19.189 13.3557 18.6667 14 18.6667V18.6667C14.6443 18.6667 15.1667 19.189 15.1667 19.8333V19.8333Z" fill="#FF9800"/>
</svg>
